{
  "accessors": [
    {
      "bufferView": 2,
      "componentType": 5126,
      "count": 12638,
      "max": [
        0.29205805063247681,
        1.8122339248657227,
        0.19157372415065765
      ],
      "min": [
        -0.28947681188583374,
        0.00049498688895255327,
        -0.19206993281841278
      ],
      "type": "VEC3"
    },
    {
      "bufferView": 2,
      "byteOffset": 151656,
      "componentType": 5126,
      "count": 12638,
      "max": [
        0.99996447563171387,
        0.99944090843200684,
        0.999980628490448
      ],
      "min": [
        -0.99988710880279541,
        -0.9998171329498291,
        -0.99974334239959717
      ],
      "type": "VEC3"
    },
    {
      "bufferView": 3,
      "componentType": 5126,
      "count": 12638,
      "max": [
        0.99987643957138062,
        0.99999463558197021,
        0.99977022409439087,
        1
      ],
      "min": [
        -0.99977821111679077,
        -0.99999940395355225,
        -0.99987155199050903,
        -1
      ],
      "type": "VEC4"
    },
    {
      "bufferView": 3,
      "byteOffset": 202208,
      "componentType": 5126,
      "count": 12638,
      "max": [
        1,
        1,
        1,
        1
      ],
      "min": [
        1,
        1,
        1,
        1
      ],
      "type": "VEC4"
    },
    {
      "bufferView": 1,
      "componentType": 5126,
      "count": 12638,
      "max": [
        0.99822092056274414,
        0.99194538593292236
      ],
      "min": [
        0.00097465887665748596,
        0.00097465887665748596
      ],
      "type": "VEC2"
    },
    {
      "bufferView": 1,
      "byteOffset": 101104,
      "componentType": 5126,
      "count": 12638,
      "max": [
        0.99822092056274414,
        0.99194538593292236
      ],
      "min": [
        0.00097465887665748596,
        0.00097465887665748596
      ],
      "type": "VEC2"
    },
    {
      "bufferView": 0,
      "componentType": 5125,
      "count": 45261,
      "max": [
        12637
      ],
      "min": [
        0
      ],
      "type": "SCALAR"
    }
  ],
  "asset": {
    "extras": {
      "author": "David Wigforss (https://sketchfab.com/dwigfor)",
      "license": "CC-BY-4.0 (http://creativecommons.org/licenses/by/4.0/)",
      "source": "https://sketchfab.com/3d-models/patrick-stewart-star-trek-c750b9860783442cb8ced077317f6426",
      "title": "Patrick Stewart (Star Trek)"
    },
    "generator": "Sketchfab-5.31.0",
    "version": "2.0"
  },
  "bufferViews": [
    {
      "buffer": 0,
      "byteLength": 181044,
      "byteOffset": 0,
      "name": "floatBufferViews",
      "target": 34963
    },
    {
      "buffer": 0,
      "byteLength": 202208,
      "byteOffset": 181044,
      "byteStride": 8,
      "name": "floatBufferViews",
      "target": 34962
    },
    {
      "buffer": 0,
      "byteLength": 303312,
      "byteOffset": 383252,
      "byteStride": 12,
      "name": "floatBufferViews",
      "target": 34962
    },
    {
      "buffer": 0,
      "byteLength": 404416,
      "byteOffset": 686564,
      "byteStride": 16,
      "name": "floatBufferViews",
      "target": 34962
    }
  ],
  "buffers": [
    {
      "byteLength": 1090980,
      "uri": "scene.bin"
    }
  ],
  "images": [
    {
      "uri": "textures/MAT_PatrickStewart_StarTrek_normal.png"
    },
    {
      "uri": "textures/MAT_PatrickStewart_StarTrek_baseColor.jpeg"
    }
  ],
  "materials": [
    {
      "doubleSided": true,
      "emissiveFactor": [
        0,
        0,
        0
      ],
      "name": "MAT_PatrickStewart_StarTrek",
      "normalTexture": {
        "index": 0,
        "scale": 1,
        "texCoord": 0
      },
      "pbrMetallicRoughness": {
        "baseColorFactor": [
          1,
          1,
          1,
          1
        ],
        "baseColorTexture": {
          "index": 1,
          "texCoord": 0
        },
        "metallicFactor": 0,
        "roughnessFactor": 0.95770514949999996
      }
    }
  ],
  "meshes": [
    {
      "name": "geo1_MAT_PatrickStewart_StarTrek_0",
      "primitives": [
        {
          "attributes": {
            "COLOR_0": 3,
            "NORMAL": 1,
            "POSITION": 0,
            "TANGENT": 2,
            "TEXCOORD_0": 4,
            "TEXCOORD_1": 5
          },
          "indices": 6,
          "material": 0,
          "mode": 4
        }
      ]
    }
  ],
  "nodes": [
    {
      "children": [
        1
      ],
      "name": "RootNode (gltf orientation matrix)",
      "rotation": [
        -0.70710678118654746,
        -0,
        -0,
        0.70710678118654757
      ]
    },
    {
      "children": [
        2
      ],
      "name": "RootNode (model correction matrix)"
    },
    {
      "children": [
        3
      ],
      "matrix": [
        1,
        0,
        0,
        0,
        0,
        0,
        1,
        0,
        0,
        -1,
        0,
        0,
        0,
        0,
        0,
        1
      ],
      "name": "mesh.fbx"
    },
    {
      "children": [
        4
      ],
      "name": "RootNode"
    },
    {
      "children": [
        5
      ],
      "name": "geo1"
    },
    {
      "mesh": 0,
      "name": "geo1_MAT_PatrickStewart_StarTrek_0"
    }
  ],
  "samplers": [
    {
      "magFilter": 9729,
      "minFilter": 9987,
      "wrapS": 10497,
      "wrapT": 10497
    }
  ],
  "scene": 0,
  "scenes": [
    {
      "name": "OSG_Scene",
      "nodes": [
        0
      ]
    }
  ],
  "textures": [
    {
      "sampler": 0,
      "source": 0
    },
    {
      "sampler": 0,
      "source": 1
    }
  ]
}

